<svg width="246" height="59" viewBox="0 0 246 59" fill="none" xmlns="http://www.w3.org/2000/svg">
<g clip-path="url(#clip0_43_328)">
<path d="M12.0255 58.7248C12.0255 58.7248 28.4374 40.8537 60.7547 40.5359C60.7547 40.5359 23.3772 31.1449 -1.05225 58.7248H12.0255Z" fill="black"/>
<path d="M-1.05225 58.7248H12.0255L17.3566 45.6471L21.938 34.3187L29.6847 15.41L35.7654 0H23.9371L-1.05225 58.7248Z" fill="black"/>
<path d="M47.3437 58.7248H60.7546L35.7653 0L29.6846 15.41L37.4313 34.3187L42.0126 45.6471L47.3437 58.7248Z" fill="black"/>
<path d="M74.6023 35H68.6364L75.358 14.6364H82.9148L89.6364 35H83.6705L79.2159 20.2443H79.0568L74.6023 35ZM73.4886 26.9659H84.7045V31.1023H73.4886V26.9659ZM91.5977 35V14.6364H100.427C101.978 14.6364 103.281 14.8452 104.335 15.2628C105.395 15.6804 106.194 16.2704 106.731 17.0327C107.275 17.795 107.547 18.6932 107.547 19.7273C107.547 20.4763 107.381 21.1591 107.049 21.7756C106.725 22.392 106.267 22.9091 105.677 23.3267C105.087 23.7377 104.398 24.0227 103.609 24.1818V24.3807C104.484 24.4138 105.279 24.6359 105.995 25.0469C106.711 25.4512 107.281 26.0114 107.706 26.7273C108.13 27.4366 108.342 28.2718 108.342 29.233C108.342 30.3466 108.05 31.3376 107.467 32.206C106.89 33.0743 106.068 33.7571 105.001 34.2543C103.934 34.7514 102.661 35 101.183 35H91.5977ZM97.1261 30.5852H99.7113C100.639 30.5852 101.335 30.4129 101.799 30.0682C102.263 29.7169 102.495 29.1998 102.495 28.517C102.495 28.0398 102.386 27.6354 102.167 27.304C101.949 26.9725 101.637 26.7206 101.233 26.5483C100.835 26.3759 100.354 26.2898 99.7908 26.2898H97.1261V30.5852ZM97.1261 22.8693H99.3931C99.877 22.8693 100.305 22.7931 100.676 22.6406C101.047 22.4882 101.335 22.2694 101.541 21.9844C101.753 21.6927 101.859 21.3381 101.859 20.9205C101.859 20.2907 101.634 19.8101 101.183 19.4787C100.732 19.1406 100.162 18.9716 99.4727 18.9716H97.1261V22.8693ZM118.136 35H110.301V14.6364H118.056C120.151 14.6364 121.961 15.044 123.485 15.8594C125.017 16.6681 126.197 17.8348 127.025 19.3594C127.86 20.8774 128.278 22.697 128.278 24.8182C128.278 26.9394 127.864 28.7623 127.035 30.2869C126.207 31.8049 125.033 32.9716 123.515 33.7869C121.997 34.5956 120.204 35 118.136 35ZM115.829 30.3068H117.937C118.945 30.3068 119.803 30.1444 120.512 29.8196C121.228 29.4948 121.772 28.9347 122.143 28.1392C122.521 27.3437 122.71 26.2367 122.71 24.8182C122.71 23.3996 122.518 22.2926 122.133 21.4972C121.755 20.7017 121.199 20.1416 120.463 19.8168C119.734 19.4919 118.839 19.3295 117.778 19.3295H115.829V30.3068ZM142.887 14.6364H148.415V27.6818C148.415 29.233 148.044 30.5753 147.302 31.7088C146.566 32.8357 145.539 33.7074 144.219 34.3239C142.9 34.9337 141.369 35.2386 139.626 35.2386C137.869 35.2386 136.331 34.9337 135.012 34.3239C133.693 33.7074 132.665 32.8357 131.93 31.7088C131.201 30.5753 130.836 29.233 130.836 27.6818V14.6364H136.364V27.2045C136.364 27.8343 136.504 28.3977 136.782 28.8949C137.06 29.3854 137.445 29.7699 137.935 30.0483C138.433 30.3267 138.996 30.4659 139.626 30.4659C140.262 30.4659 140.826 30.3267 141.316 30.0483C141.807 29.7699 142.191 29.3854 142.469 28.8949C142.748 28.3977 142.887 27.8343 142.887 27.2045V14.6364ZM151.043 35V14.6364H156.571V30.5455H164.804V35H151.043ZM167.039 35V14.6364H172.567V30.5455H180.8V35H167.039ZM188.325 35H182.359L189.081 14.6364H196.637L203.359 35H197.393L192.939 20.2443H192.779L188.325 35ZM187.211 26.9659H198.427V31.1023H187.211V26.9659ZM202.193 19.0909V14.6364H219.892V19.0909H213.767V35H208.318V19.0909H202.193ZM227.501 14.6364V35H221.973V14.6364H227.501ZM230.121 35V14.6364H244.439V19.0909H235.65V22.5909H243.564V27.0455H235.65V35H230.121Z" fill="black"/>
<path d="M72.0057 59L68.6818 48.0909H70.4432L72.8011 56.4432H72.9148L75.2443 48.0909H77.0341L79.3352 56.4148H79.4489L81.8068 48.0909H83.5682L80.2443 59H78.5966L76.2102 50.6193H76.0398L73.6534 59H72.0057ZM89.9869 59.2273C88.9357 59.2273 88.029 58.9953 87.2667 58.5312C86.5091 58.0625 85.9244 57.4091 85.5124 56.571C85.1052 55.7282 84.9016 54.7481 84.9016 53.6307C84.9016 52.5133 85.1052 51.5284 85.5124 50.6761C85.9244 49.8191 86.4973 49.1515 87.2312 48.6733C87.9698 48.1903 88.8316 47.9489 89.8164 47.9489C90.3846 47.9489 90.9457 48.0436 91.4996 48.233C92.0536 48.4223 92.5579 48.7301 93.0124 49.1562C93.467 49.5777 93.8292 50.1364 94.0991 50.8324C94.369 51.5284 94.5039 52.3854 94.5039 53.4034V54.1136H86.0948V52.6648H92.7994C92.7994 52.0492 92.6763 51.5 92.43 51.017C92.1886 50.5341 91.8429 50.1529 91.3931 49.8736C90.948 49.5942 90.4225 49.4545 89.8164 49.4545C89.1488 49.4545 88.5711 49.6203 88.0835 49.9517C87.6005 50.2784 87.2288 50.7045 86.9684 51.2301C86.708 51.7557 86.5778 52.3191 86.5778 52.9205V53.8864C86.5778 54.7102 86.7198 55.4086 87.0039 55.9815C87.2927 56.5497 87.6928 56.983 88.2042 57.2812C88.7156 57.5748 89.3098 57.7216 89.9869 57.7216C90.4272 57.7216 90.8249 57.66 91.18 57.5369C91.5399 57.4091 91.85 57.2197 92.1104 56.9688C92.3709 56.7131 92.5721 56.3958 92.7141 56.017L94.3335 56.4716C94.163 57.0208 93.8765 57.5038 93.4741 57.9205C93.0716 58.3324 92.5745 58.6544 91.9826 58.8864C91.3907 59.1136 90.7255 59.2273 89.9869 59.2273ZM97.2809 59V44.4545H98.957V49.8239H99.0991C99.2222 49.6345 99.3926 49.393 99.6104 49.0994C99.833 48.8011 100.15 48.536 100.562 48.304C100.979 48.0672 101.542 47.9489 102.252 47.9489C103.171 47.9489 103.981 48.1785 104.681 48.6378C105.382 49.0971 105.929 49.7481 106.322 50.5909C106.715 51.4337 106.912 52.428 106.912 53.5739C106.912 54.7292 106.715 55.7306 106.322 56.5781C105.929 57.4209 105.385 58.0743 104.689 58.5384C103.993 58.9976 103.19 59.2273 102.281 59.2273C101.58 59.2273 101.019 59.1113 100.598 58.8793C100.176 58.6425 99.8519 58.375 99.6246 58.0767C99.3974 57.7737 99.2222 57.5227 99.0991 57.3239H98.9002V59H97.2809ZM98.9286 53.5455C98.9286 54.3693 99.0494 55.0961 99.2908 55.7259C99.5323 56.3509 99.8851 56.8409 100.349 57.196C100.813 57.5464 101.381 57.7216 102.054 57.7216C102.754 57.7216 103.339 57.5369 103.808 57.1676C104.281 56.7936 104.636 56.2917 104.873 55.6619C105.115 55.0275 105.235 54.322 105.235 53.5455C105.235 52.7784 105.117 52.0871 104.88 51.4716C104.648 50.8513 104.296 50.3613 103.822 50.0014C103.353 49.6368 102.764 49.4545 102.054 49.4545C101.372 49.4545 100.799 49.6274 100.335 49.973C99.8709 50.3139 99.5205 50.7921 99.2837 51.4077C99.047 52.0185 98.9286 52.7311 98.9286 53.5455ZM119.22 59.2273C118.311 59.2273 117.508 58.9976 116.812 58.5384C116.116 58.0743 115.572 57.4209 115.179 56.5781C114.786 55.7306 114.589 54.7292 114.589 53.5739C114.589 52.428 114.786 51.4337 115.179 50.5909C115.572 49.7481 116.118 49.0971 116.819 48.6378C117.52 48.1785 118.33 47.9489 119.248 47.9489C119.958 47.9489 120.52 48.0672 120.931 48.304C121.348 48.536 121.665 48.8011 121.883 49.0994C122.106 49.393 122.279 49.6345 122.402 49.8239H122.544V44.4545H124.22V59H122.6V57.3239H122.402C122.279 57.5227 122.103 57.7737 121.876 58.0767C121.649 58.375 121.324 58.6425 120.903 58.8793C120.482 59.1113 119.921 59.2273 119.22 59.2273ZM119.447 57.7216C120.119 57.7216 120.688 57.5464 121.152 57.196C121.616 56.8409 121.968 56.3509 122.21 55.7259C122.451 55.0961 122.572 54.3693 122.572 53.5455C122.572 52.7311 122.454 52.0185 122.217 51.4077C121.98 50.7921 121.63 50.3139 121.166 49.973C120.702 49.6274 120.129 49.4545 119.447 49.4545C118.737 49.4545 118.145 49.6368 117.672 50.0014C117.203 50.3613 116.85 50.8513 116.613 51.4716C116.381 52.0871 116.265 52.7784 116.265 53.5455C116.265 54.322 116.384 55.0275 116.62 55.6619C116.862 56.2917 117.217 56.7936 117.686 57.1676C118.159 57.5369 118.746 57.7216 119.447 57.7216ZM132.096 59.2273C131.045 59.2273 130.138 58.9953 129.376 58.5312C128.618 58.0625 128.034 57.4091 127.622 56.571C127.215 55.7282 127.011 54.7481 127.011 53.6307C127.011 52.5133 127.215 51.5284 127.622 50.6761C128.034 49.8191 128.607 49.1515 129.341 48.6733C130.079 48.1903 130.941 47.9489 131.926 47.9489C132.494 47.9489 133.055 48.0436 133.609 48.233C134.163 48.4223 134.667 48.7301 135.122 49.1562C135.576 49.5777 135.939 50.1364 136.208 50.8324C136.478 51.5284 136.613 52.3854 136.613 53.4034V54.1136H128.204V52.6648H134.909C134.909 52.0492 134.786 51.5 134.539 51.017C134.298 50.5341 133.952 50.1529 133.502 49.8736C133.057 49.5942 132.532 49.4545 131.926 49.4545C131.258 49.4545 130.681 49.6203 130.193 49.9517C129.71 50.2784 129.338 50.7045 129.078 51.2301C128.817 51.7557 128.687 52.3191 128.687 52.9205V53.8864C128.687 54.7102 128.829 55.4086 129.113 55.9815C129.402 56.5497 129.802 56.983 130.314 57.2812C130.825 57.5748 131.419 57.7216 132.096 57.7216C132.537 57.7216 132.934 57.66 133.289 57.5369C133.649 57.4091 133.959 57.2197 134.22 56.9688C134.48 56.7131 134.681 56.3958 134.824 56.017L136.443 56.4716C136.272 57.0208 135.986 57.5038 135.583 57.9205C135.181 58.3324 134.684 58.6544 134.092 58.8864C133.5 59.1136 132.835 59.2273 132.096 59.2273ZM146.89 50.5341L145.385 50.9602C145.29 50.7093 145.15 50.4654 144.966 50.2287C144.786 49.9872 144.539 49.7884 144.227 49.6321C143.914 49.4759 143.514 49.3977 143.027 49.3977C142.359 49.3977 141.803 49.5516 141.358 49.8594C140.917 50.1624 140.697 50.5483 140.697 51.017C140.697 51.4337 140.849 51.7628 141.152 52.0043C141.455 52.2457 141.928 52.447 142.572 52.608L144.191 53.0057C145.167 53.2424 145.894 53.6046 146.372 54.0923C146.85 54.5753 147.089 55.1979 147.089 55.9602C147.089 56.5852 146.909 57.1439 146.549 57.6364C146.194 58.1288 145.697 58.517 145.058 58.8011C144.419 59.0852 143.675 59.2273 142.828 59.2273C141.715 59.2273 140.794 58.9858 140.065 58.5028C139.336 58.0199 138.874 57.3144 138.68 56.3864L140.271 55.9886C140.422 56.5758 140.709 57.0161 141.13 57.3097C141.556 57.6032 142.113 57.75 142.799 57.75C143.581 57.75 144.201 57.5843 144.66 57.2528C145.124 56.9167 145.356 56.5142 145.356 56.0455C145.356 55.6667 145.224 55.3494 144.958 55.0938C144.693 54.8333 144.286 54.6392 143.737 54.5114L141.919 54.0852C140.92 53.8485 140.186 53.4815 139.717 52.9844C139.253 52.4825 139.021 51.8551 139.021 51.1023C139.021 50.4867 139.194 49.9422 139.539 49.4688C139.89 48.9953 140.366 48.6236 140.967 48.3537C141.573 48.0838 142.26 47.9489 143.027 47.9489C144.106 47.9489 144.954 48.1856 145.569 48.6591C146.19 49.1326 146.63 49.7576 146.89 50.5341ZM149.612 59V48.0909H151.288V59H149.612ZM150.464 46.2727C150.138 46.2727 149.856 46.1615 149.619 45.9389C149.387 45.7164 149.271 45.4489 149.271 45.1364C149.271 44.8239 149.387 44.5563 149.619 44.3338C149.856 44.1113 150.138 44 150.464 44C150.791 44 151.071 44.1113 151.303 44.3338C151.539 44.5563 151.658 44.8239 151.658 45.1364C151.658 45.4489 151.539 45.7164 151.303 45.9389C151.071 46.1615 150.791 46.2727 150.464 46.2727ZM158.762 63.3182C157.952 63.3182 157.256 63.214 156.674 63.0057C156.091 62.8021 155.606 62.5322 155.218 62.196C154.834 61.8646 154.529 61.5095 154.301 61.1307L155.637 60.1932C155.788 60.392 155.98 60.6193 156.212 60.875C156.444 61.1354 156.761 61.3603 157.164 61.5497C157.571 61.7438 158.104 61.8409 158.762 61.8409C159.642 61.8409 160.369 61.6278 160.942 61.2017C161.515 60.7756 161.801 60.108 161.801 59.1989V56.983H161.659C161.536 57.1818 161.361 57.428 161.134 57.7216C160.911 58.0104 160.589 58.2685 160.168 58.4957C159.751 58.7183 159.188 58.8295 158.478 58.8295C157.597 58.8295 156.806 58.6212 156.105 58.2045C155.409 57.7879 154.858 57.1818 154.451 56.3864C154.048 55.5909 153.847 54.625 153.847 53.4886C153.847 52.3712 154.043 51.3982 154.436 50.5696C154.829 49.7363 155.376 49.0923 156.077 48.6378C156.778 48.1785 157.587 47.9489 158.506 47.9489C159.216 47.9489 159.78 48.0672 160.196 48.304C160.618 48.536 160.94 48.8011 161.162 49.0994C161.39 49.393 161.565 49.6345 161.688 49.8239H161.858V48.0909H163.478V59.3125C163.478 60.25 163.265 61.0123 162.838 61.5994C162.417 62.1913 161.849 62.6245 161.134 62.8991C160.424 63.1785 159.633 63.3182 158.762 63.3182ZM158.705 57.3239C159.377 57.3239 159.945 57.17 160.409 56.8622C160.873 56.5545 161.226 56.1117 161.468 55.5341C161.709 54.9564 161.83 54.2652 161.83 53.4602C161.83 52.6742 161.712 51.9806 161.475 51.3793C161.238 50.7779 160.888 50.3068 160.424 49.9659C159.96 49.625 159.387 49.4545 158.705 49.4545C157.995 49.4545 157.403 49.6345 156.929 49.9943C156.461 50.3542 156.108 50.8371 155.871 51.4432C155.639 52.0492 155.523 52.7216 155.523 53.4602C155.523 54.2178 155.641 54.8878 155.878 55.4702C156.12 56.0478 156.475 56.5024 156.944 56.8338C157.417 57.1605 158.004 57.3239 158.705 57.3239ZM168.222 52.4375V59H166.546V48.0909H168.165V49.7955H168.307C168.563 49.2415 168.951 48.7964 169.472 48.4602C169.993 48.1193 170.665 47.9489 171.489 47.9489C172.228 47.9489 172.874 48.1004 173.428 48.4034C173.982 48.7017 174.413 49.1562 174.721 49.767C175.028 50.3731 175.182 51.1402 175.182 52.0682V59H173.506V52.1818C173.506 51.3248 173.283 50.6572 172.838 50.179C172.393 49.696 171.783 49.4545 171.006 49.4545C170.471 49.4545 169.993 49.5705 169.571 49.8026C169.155 50.0346 168.826 50.3731 168.584 50.8182C168.343 51.2633 168.222 51.803 168.222 52.4375ZM182.819 59.2273C181.768 59.2273 180.861 58.9953 180.099 58.5312C179.341 58.0625 178.756 57.4091 178.344 56.571C177.937 55.7282 177.734 54.7481 177.734 53.6307C177.734 52.5133 177.937 51.5284 178.344 50.6761C178.756 49.8191 179.329 49.1515 180.063 48.6733C180.802 48.1903 181.664 47.9489 182.648 47.9489C183.217 47.9489 183.778 48.0436 184.332 48.233C184.886 48.4223 185.39 48.7301 185.844 49.1562C186.299 49.5777 186.661 50.1364 186.931 50.8324C187.201 51.5284 187.336 52.3854 187.336 53.4034V54.1136H178.927V52.6648H185.631C185.631 52.0492 185.508 51.5 185.262 51.017C185.021 50.5341 184.675 50.1529 184.225 49.8736C183.78 49.5942 183.254 49.4545 182.648 49.4545C181.981 49.4545 181.403 49.6203 180.915 49.9517C180.433 50.2784 180.061 50.7045 179.8 51.2301C179.54 51.7557 179.41 52.3191 179.41 52.9205V53.8864C179.41 54.7102 179.552 55.4086 179.836 55.9815C180.125 56.5497 180.525 56.983 181.036 57.2812C181.548 57.5748 182.142 57.7216 182.819 57.7216C183.259 57.7216 183.657 57.66 184.012 57.5369C184.372 57.4091 184.682 57.2197 184.942 56.9688C185.203 56.7131 185.404 56.3958 185.546 56.017L187.165 56.4716C186.995 57.0208 186.709 57.5038 186.306 57.9205C185.904 58.3324 185.406 58.6544 184.815 58.8864C184.223 59.1136 183.558 59.2273 182.819 59.2273ZM189.886 59V48.0909H191.505V49.7386H191.619C191.817 49.1989 192.177 48.7609 192.698 48.4247C193.219 48.0885 193.806 47.9205 194.46 47.9205C194.583 47.9205 194.737 47.9228 194.921 47.9276C195.106 47.9323 195.246 47.9394 195.34 47.9489V49.6534C195.283 49.6392 195.153 49.6179 194.95 49.5895C194.751 49.5563 194.54 49.5398 194.317 49.5398C193.787 49.5398 193.314 49.651 192.897 49.8736C192.485 50.0914 192.158 50.3944 191.917 50.7827C191.68 51.1662 191.562 51.6042 191.562 52.0966V59H189.886Z" fill="black"/>
</g>
<defs>
<clipPath id="clip0_43_328">
<rect width="246" height="59" fill="white"/>
</clipPath>
</defs>
</svg>
